<svg width="17" height="16" viewBox="0 0 17 16" fill="none" xmlns="http://www.w3.org/2000/svg">
<g clip-path="url(#clip0_1610_164)">
<path d="M8.16595 0C6.55088 0 4.97208 0.451342 3.62919 1.29695C2.28631 2.14256 1.23966 3.34446 0.621599 4.75065C0.00353819 6.15685 -0.158175 7.70419 0.15691 9.197C0.471995 10.6898 1.24973 12.061 2.39175 13.1373C3.53378 14.2136 4.98881 14.9465 6.57285 15.2434C8.15689 15.5404 9.79879 15.388 11.2909 14.8055C12.7831 14.223 14.0584 13.2367 14.9557 11.9711C15.853 10.7056 16.3319 9.21771 16.3319 7.69565C16.3296 5.65532 15.4685 3.69918 13.9376 2.25644C12.4067 0.813705 10.331 0.00220678 8.16595 0V0ZM8.16595 14.1087C6.82006 14.1087 5.50439 13.7326 4.38532 13.0279C3.26625 12.3232 2.39404 11.3216 1.87899 10.1498C1.36394 8.97799 1.22918 7.68854 1.49175 6.44453C1.75432 5.20052 2.40243 4.05783 3.35412 3.16095C4.30581 2.26407 5.51834 1.65328 6.83837 1.40583C8.1584 1.15838 9.52665 1.28538 10.7701 1.77077C12.0135 2.25616 13.0763 3.07814 13.8241 4.13276C14.5718 5.18738 14.9709 6.42727 14.9709 7.69565C14.9689 9.39592 14.2513 11.026 12.9756 12.2283C11.6998 13.4306 9.97013 14.1068 8.16595 14.1087Z" fill="#6A4028"/>
<path d="M10.5722 5.42802C10.7005 5.54484 10.8724 5.60948 11.0508 5.60802C11.2293 5.60656 11.3999 5.53911 11.5261 5.42021C11.6523 5.30131 11.7239 5.14046 11.7254 4.97231C11.727 4.80417 11.6584 4.64217 11.5344 4.52122C10.8682 3.89345 10.0194 3.46595 9.09543 3.29277C8.17142 3.11959 7.21367 3.20852 6.34329 3.5483C5.47291 3.88809 4.72898 4.46347 4.20559 5.2017C3.68219 5.93992 3.40283 6.80783 3.40283 7.69568C3.40283 8.58352 3.68219 9.45143 4.20559 10.1897C4.72898 10.9279 5.47291 11.5033 6.34329 11.843C7.21367 12.1828 8.17142 12.2718 9.09543 12.0986C10.0194 11.9254 10.8682 11.4979 11.5344 10.8701C11.6584 10.7492 11.727 10.5872 11.7254 10.419C11.7239 10.2509 11.6523 10.09 11.5261 9.97114C11.3999 9.85224 11.2293 9.78479 11.0508 9.78333C10.8724 9.78187 10.7005 9.84651 10.5722 9.96333C10.0963 10.4117 9.49004 10.717 8.83005 10.8406C8.17006 10.9643 7.48598 10.9008 6.86431 10.658C6.24264 10.4153 5.7113 10.0043 5.33747 9.47704C4.96364 8.94974 4.76411 8.32983 4.76411 7.69568C4.76411 7.06152 4.96364 6.44161 5.33747 5.91432C5.7113 5.38702 6.24264 4.97604 6.86431 4.73332C7.48598 4.4906 8.17006 4.42705 8.83005 4.5507C9.49004 4.67436 10.0963 4.97967 10.5722 5.42802Z" fill="#523728"/>
</g>
<defs>
<clipPath id="clip0_1610_164">
<rect width="16.3319" height="15.3913" fill="white"/>
</clipPath>
</defs>
</svg>
