<svg width="16" height="15" viewBox="0 0 16 15" fill="none" xmlns="http://www.w3.org/2000/svg">
<g clip-path="url(#clip0_1610_78)">
<path d="M0.884307 7.75015L3.25764 9.37516L2.35631 11.992C2.21065 12.3979 2.2088 12.837 2.35105 13.244C2.49329 13.6509 2.772 14.0038 3.14564 14.2502C3.51288 14.5044 3.9579 14.6406 4.41441 14.6385C4.87092 14.6363 5.31447 14.4959 5.67897 14.2383L7.99964 12.637L10.321 14.2364C10.6875 14.4892 11.1302 14.6265 11.5852 14.6286C12.0403 14.6306 12.4843 14.4974 12.8535 14.248C13.2227 13.9986 13.498 13.6458 13.6398 13.2405C13.7817 12.8351 13.7828 12.398 13.643 11.992L12.7416 9.37516L15.115 7.75015C15.4811 7.49922 15.7532 7.14625 15.8925 6.74165C16.0319 6.33705 16.0312 5.90152 15.8908 5.49727C15.7503 5.09302 15.4771 4.74073 15.1103 4.49072C14.7435 4.24071 14.3018 4.10576 13.8483 4.10515H10.933L10.0483 1.52015C9.90919 1.11325 9.63582 0.758288 9.26762 0.506445C8.89942 0.254602 8.45542 0.118896 7.99964 0.118896C7.54386 0.118896 7.09986 0.254602 6.73166 0.506445C6.36346 0.758288 6.09009 1.11325 5.95097 1.52015L5.06631 4.10515H2.15364C1.70014 4.10576 1.25843 4.24071 0.891627 4.49072C0.524819 4.74073 0.251667 5.09302 0.111188 5.49727C-0.0292916 5.90152 -0.0299134 6.33705 0.109411 6.74165C0.248736 7.14625 0.520881 7.49922 0.886974 7.75015H0.884307Z" fill="#6A4028"/>
</g>
<defs>
<clipPath id="clip0_1610_78">
<rect width="16" height="15" fill="white"/>
</clipPath>
</defs>
</svg>
